<svg width="1500" height="239" viewBox="0 0 1500 239" fill="none" xmlns="http://www.w3.org/2000/svg">
<g clip-path="url(#clip0_1142_2561)">
<g clip-path="url(#clip1_1142_2561)">
<path d="M125.928 141.163V182.353L69.0391 225.405C64.6555 228.703 60.4629 230.614 56.4129 230.614C50.5523 230.614 44.9301 226.648 39.5462 217.283C39.5144 217.25 39.4985 217.235 39.4985 217.235L1.00056 150.386L0.571753 149.621C0.23823 148.857 0 147.997 0 147.089C0 143.839 2.66817 141.163 5.90811 141.163H125.928Z" fill="url(#paint0_linear_1142_2561)"/>
<path d="M125.928 141.163V182.353L69.0391 225.405C64.6555 228.703 60.4629 230.614 56.4129 230.614C50.5523 230.614 44.9301 226.648 39.5462 217.283C39.5144 217.25 39.4985 217.235 39.4985 217.235L1.00056 150.386L0.571753 149.621C0.23823 148.857 0 147.997 0 147.089C0 143.839 2.66817 141.163 5.90811 141.163H125.928Z" fill="black" fill-opacity="0.2"/>
<path d="M5.90811 97.8361C2.66817 97.8361 0 95.1602 0 91.9112C0 91.003 0.23823 90.143 0.571753 89.3787L1.00056 88.6139L39.4985 21.7652C39.4985 21.7652 39.5144 21.7491 39.5462 21.7173C44.9301 12.3518 50.5523 8.38574 56.4129 8.38574C60.4629 8.38574 64.6555 10.2973 69.0391 13.5941L125.928 56.6467V97.8361H5.90811Z" fill="url(#paint1_linear_1142_2561)"/>
<path d="M5.90811 97.8361C2.66817 97.8361 0 95.1602 0 91.9112C0 91.003 0.23823 90.143 0.571753 89.3787L1.00056 88.6139L39.4985 21.7652C39.4985 21.7652 39.5144 21.7491 39.5462 21.7173C44.9301 12.3518 50.5523 8.38574 56.4129 8.38574C60.4629 8.38574 64.6555 10.2973 69.0391 13.5941L125.928 56.6467V97.8361H5.90811Z" fill="black" fill-opacity="0.2"/>
<path d="M268.647 118.801H210.416L126.14 55.8364L68.8688 13.0204V12.9731C58.0761 4.94224 48.339 5.41748 39.1777 21.0991L45.9889 9.36145C49.0108 4.18158 56.3497 0 62.3451 0H191.662C197.658 0 205.044 4.18158 208.018 9.36145L266.393 109.487C267.88 112.053 268.647 115.427 268.647 118.801Z" fill="#F58B21"/>
<path d="M268.647 118.802C268.647 122.261 267.88 125.674 266.393 128.269L208.018 229.533C205.044 234.771 197.658 239 191.662 239H62.3451C56.3497 239 49.0108 234.771 45.9889 229.533L39.1777 217.662C44.5979 227.081 50.2577 231.07 56.1579 231.07C60.235 231.07 64.4557 229.148 68.8688 225.832L126.14 182.529L210.416 118.802H268.647Z" fill="url(#paint2_linear_1142_2561)"/>
<path d="M311.212 128.891L253.388 229.585C250.442 234.795 243.125 239 237.186 239H218.275C218.814 238.267 219.305 237.503 219.748 236.706L277.572 136.012C283.084 126.454 283.084 112.546 277.572 102.941L219.748 2.24614C219.305 1.48134 218.814 0.732627 218.275 0H237.186C243.125 0 250.442 4.20548 253.388 9.41477L311.212 110.109C314.158 115.271 314.158 123.729 311.212 128.891Z" fill="url(#paint3_linear_1142_2561)"/>
<path d="M357.385 128.891L299.531 229.585C296.584 234.795 289.263 239 283.321 239H264.449C264.956 238.267 265.447 237.503 265.923 236.706L323.728 136.012C329.243 126.454 329.243 112.546 323.728 102.941L265.923 2.24614C265.447 1.48134 264.956 0.732627 264.449 0H283.321C289.263 0 296.584 4.20548 299.531 9.41477L357.385 110.109C360.332 115.271 360.332 123.729 357.385 128.891Z" fill="url(#paint4_linear_1142_2561)"/>
<path d="M428.607 1.95652L463.19 110.669H464.518L499.171 1.95652H532.705L483.377 145.043H444.395L395 1.95652H428.607ZM569.599 145.043V1.95652H666.013V26.8988H599.853V60.9936H661.056V85.9364H599.853V120.101H666.291V145.043H569.599ZM709.738 145.043V1.95652H766.192C776.996 1.95652 786.221 3.88953 793.856 7.75556C801.545 11.5746 807.387 17.0009 811.393 24.0345C815.448 31.0212 817.47 39.2418 817.47 48.6971C817.47 58.1993 815.42 66.3735 811.322 73.2207C807.223 80.021 801.288 85.2374 793.506 88.8707C785.778 92.5039 776.417 94.3205 765.421 94.3205H727.625V70.0067H760.53C766.306 70.0067 771.105 69.2148 774.925 67.631C778.745 66.0477 781.587 63.6721 783.445 60.5045C785.357 57.3374 786.314 53.4014 786.314 48.6971C786.314 43.9462 785.357 39.9408 783.445 36.6803C781.587 33.4198 778.717 30.9512 774.854 29.2745C771.034 27.5508 766.214 26.6895 760.393 26.6895H739.992V145.043H709.738ZM787.008 79.9275L822.574 145.043H789.177L754.382 79.9275H787.008ZM880.531 1.95652L915.113 110.669H916.441L951.095 1.95652H984.634L935.306 145.043H896.319L846.926 1.95652H880.531ZM1144.94 73.5C1144.94 89.1035 1141.99 102.378 1136.07 113.324C1130.2 124.27 1122.19 132.631 1112.04 138.406C1101.93 144.135 1090.57 147 1077.94 147C1065.23 147 1053.82 144.112 1043.71 138.336C1033.6 132.561 1025.62 124.2 1019.75 113.254C1013.88 102.308 1010.94 89.057 1010.94 73.5C1010.94 57.8965 1013.88 44.6217 1019.75 33.6761C1025.62 22.73 1033.6 14.3924 1043.71 8.66387C1053.82 2.88777 1065.23 0 1077.94 0C1090.57 0 1101.93 2.88777 1112.04 8.66387C1122.19 14.3924 1130.2 22.73 1136.07 33.6761C1141.99 44.6217 1144.94 57.8965 1144.94 73.5ZM1114.27 73.5C1114.27 63.3928 1112.76 54.8688 1109.73 47.9287C1106.75 40.9885 1102.54 35.7256 1097.09 32.1388C1091.64 28.5526 1085.26 26.7589 1077.94 26.7589C1070.63 26.7589 1064.25 28.5526 1058.8 32.1388C1053.35 35.7256 1049.11 40.9885 1046.08 47.9287C1043.1 54.8688 1041.61 63.3928 1041.61 73.5C1041.61 83.6072 1043.1 92.1312 1046.08 99.0713C1049.11 106.012 1053.35 111.274 1058.8 114.861C1064.25 118.447 1070.63 120.241 1077.94 120.241C1085.26 120.241 1091.64 118.447 1097.09 114.861C1102.54 111.274 1106.75 106.012 1109.73 99.0713C1112.76 92.1312 1114.27 83.6072 1114.27 73.5ZM1187.02 145.043V1.95652H1283.44V26.8988H1217.28V60.9936H1278.48V85.9364H1217.28V120.101H1283.72V145.043H1187.02ZM1327.16 145.043V1.95652H1383.62C1394.42 1.95652 1403.65 3.88953 1411.28 7.75556C1418.97 11.5746 1424.81 17.0009 1428.82 24.0345C1432.87 31.0212 1434.9 39.2418 1434.9 48.6971C1434.9 58.1993 1432.85 66.3735 1428.75 73.2207C1424.65 80.021 1418.71 85.2374 1410.93 88.8707C1403.2 92.5039 1393.84 94.3205 1382.85 94.3205H1345.05V70.0067H1377.96C1383.73 70.0067 1388.53 69.2148 1392.35 67.631C1396.17 66.0477 1399.01 63.6721 1400.88 60.5045C1402.78 57.3374 1403.74 53.4014 1403.74 48.6971C1403.74 43.9462 1402.78 39.9408 1400.88 36.6803C1399.01 33.4198 1396.15 30.9512 1392.28 29.2745C1388.46 27.5508 1383.64 26.6895 1377.82 26.6895H1357.42V145.043H1327.16ZM1404.44 79.9275L1440 145.043H1406.6L1371.81 79.9275H1404.44Z" fill="white"/>
<path d="M437.784 190.932V186.636H475.753V190.932H459.159V239H454.378V190.932H437.784ZM498.757 239V186.636H515.658C519.374 186.636 522.476 187.31 524.964 188.656C527.47 189.986 529.354 191.835 530.615 194.205C531.893 196.557 532.533 199.259 532.533 202.31C532.533 205.361 531.893 208.054 530.615 210.389C529.354 212.724 527.479 214.548 524.99 215.861C522.501 217.173 519.416 217.83 515.734 217.83H501.339V213.457H515.606C518.334 213.457 520.601 213.006 522.408 212.102C524.231 211.199 525.587 209.912 526.473 208.241C527.376 206.571 527.828 204.594 527.828 202.31C527.828 200.026 527.376 198.031 526.473 196.327C525.57 194.605 524.206 193.276 522.382 192.338C520.575 191.401 518.291 190.932 515.53 190.932H503.538V239H498.757ZM521.845 215.375L534.731 239H529.209L516.45 215.375H521.845ZM556.496 239H551.484L570.533 186.636H575.646L594.694 239H589.683L573.268 192.849H572.91L556.496 239ZM560.101 218.929H586.078V223.224H560.101V218.929ZM656.69 186.636V239H652.037L621.099 195.151H620.69V239H615.909V186.636H620.537L651.577 230.537H651.986V186.636H656.69ZM711.284 199.727C710.994 196.812 709.707 194.494 707.423 192.773C705.139 191.051 702.267 190.19 698.807 190.19C696.369 190.19 694.221 190.608 692.363 191.443C690.522 192.278 689.074 193.437 688.017 194.92C686.977 196.386 686.457 198.057 686.457 199.932C686.457 201.312 686.755 202.523 687.352 203.562C687.949 204.602 688.75 205.497 689.755 206.247C690.778 206.98 691.903 207.611 693.13 208.139C694.375 208.668 695.628 209.111 696.889 209.469L702.412 211.054C704.082 211.514 705.753 212.102 707.423 212.818C709.094 213.534 710.619 214.437 712 215.528C713.397 216.602 714.514 217.923 715.349 219.491C716.201 221.043 716.628 222.909 716.628 225.091C716.628 227.886 715.903 230.401 714.454 232.634C713.005 234.866 710.926 236.639 708.216 237.952C705.505 239.247 702.258 239.895 698.474 239.895C694.912 239.895 691.818 239.307 689.193 238.131C686.568 236.937 684.505 235.293 683.005 233.196C681.505 231.099 680.662 228.67 680.474 225.909H685.383C685.554 227.972 686.236 229.719 687.429 231.151C688.622 232.582 690.173 233.673 692.082 234.423C693.991 235.156 696.122 235.523 698.474 235.523C701.082 235.523 703.4 235.088 705.429 234.219C707.474 233.332 709.076 232.105 710.236 230.537C711.412 228.952 712 227.111 712 225.014C712 223.241 711.54 221.759 710.619 220.565C709.699 219.355 708.412 218.341 706.758 217.523C705.122 216.705 703.221 215.98 701.057 215.349L694.792 213.509C690.684 212.281 687.497 210.585 685.23 208.42C682.963 206.256 681.829 203.494 681.829 200.136C681.829 197.324 682.579 194.852 684.079 192.722C685.596 190.574 687.642 188.903 690.216 187.71C692.807 186.5 695.713 185.895 698.934 185.895C702.19 185.895 705.071 186.491 707.576 187.685C710.082 188.878 712.068 190.523 713.534 192.619C715.017 194.699 715.809 197.068 715.912 199.727H711.284ZM783.302 212.818C783.302 218.273 782.331 223.02 780.388 227.06C778.444 231.082 775.768 234.202 772.359 236.418C768.967 238.616 765.064 239.716 760.649 239.716C756.234 239.716 752.322 238.616 748.913 236.418C745.521 234.202 742.853 231.082 740.91 227.06C738.984 223.02 738.021 218.273 738.021 212.818C738.021 207.364 738.984 202.625 740.91 198.602C742.853 194.562 745.53 191.443 748.939 189.244C752.348 187.028 756.251 185.92 760.649 185.92C765.064 185.92 768.967 187.028 772.359 189.244C775.768 191.443 778.444 194.562 780.388 198.602C782.331 202.625 783.302 207.364 783.302 212.818ZM778.649 212.818C778.649 208.131 777.865 204.116 776.297 200.776C774.728 197.418 772.589 194.852 769.879 193.08C767.169 191.307 764.092 190.42 760.649 190.42C757.223 190.42 754.155 191.307 751.444 193.08C748.734 194.852 746.586 197.409 745.001 200.75C743.433 204.091 742.649 208.114 742.649 212.818C742.649 217.506 743.433 221.52 745.001 224.861C746.569 228.202 748.709 230.767 751.419 232.557C754.129 234.33 757.206 235.216 760.649 235.216C764.092 235.216 767.169 234.33 769.879 232.557C772.606 230.784 774.754 228.227 776.322 224.886C777.89 221.528 778.666 217.506 778.649 212.818ZM807.105 239V186.636H824.006C827.722 186.636 830.824 187.31 833.313 188.656C835.819 189.986 837.702 191.835 838.963 194.205C840.242 196.557 840.881 199.259 840.881 202.31C840.881 205.361 840.242 208.054 838.963 210.389C837.702 212.724 835.827 214.548 833.338 215.861C830.85 217.173 827.765 217.83 824.083 217.83H809.688V213.457H823.955C826.682 213.457 828.949 213.006 830.756 212.102C832.58 211.199 833.935 209.912 834.821 208.241C835.725 206.571 836.177 204.594 836.177 202.31C836.177 200.026 835.725 198.031 834.821 196.327C833.918 194.605 832.554 193.276 830.73 192.338C828.924 191.401 826.64 190.932 823.878 190.932H811.887V239H807.105ZM830.194 215.375L843.08 239H837.557L824.799 215.375H830.194ZM861.597 190.932V186.636H899.566V190.932H882.972V239H878.191V190.932H861.597ZM968.125 239.716C964.904 239.716 962.091 239.094 959.688 237.849C957.284 236.588 955.418 234.875 954.088 232.71C952.759 230.545 952.094 228.099 952.094 225.372C952.094 223.395 952.494 221.614 953.296 220.028C954.114 218.426 955.29 216.909 956.824 215.477C958.358 214.028 960.216 212.528 962.398 210.977L969.992 205.327C971.798 204.031 973.171 202.761 974.108 201.517C975.063 200.256 975.54 198.713 975.54 196.889C975.54 195.134 974.875 193.565 973.546 192.185C972.233 190.787 970.529 190.088 968.432 190.088C966.966 190.088 965.654 190.455 964.494 191.188C963.352 191.92 962.441 192.875 961.759 194.051C961.094 195.21 960.762 196.429 960.762 197.707C960.762 198.901 961.068 200.102 961.682 201.312C962.296 202.506 963.122 203.767 964.162 205.097C965.202 206.409 966.361 207.858 967.639 209.443L991.571 239H986.048L965.185 213.406C963.429 211.259 961.869 209.341 960.506 207.653C959.142 205.949 958.068 204.312 957.284 202.744C956.5 201.159 956.108 199.463 956.108 197.656C956.108 195.423 956.628 193.438 957.668 191.699C958.708 189.943 960.139 188.562 961.963 187.557C963.804 186.551 965.909 186.048 968.279 186.048C970.699 186.048 972.796 186.543 974.568 187.531C976.358 188.52 977.739 189.832 978.71 191.469C979.699 193.105 980.193 194.912 980.193 196.889C980.193 199.259 979.58 201.355 978.352 203.179C977.142 205.003 975.378 206.793 973.06 208.548L963.548 215.656C960.941 217.616 959.151 219.432 958.179 221.102C957.208 222.773 956.722 224.196 956.722 225.372C956.722 227.213 957.199 228.909 958.154 230.46C959.108 232.011 960.429 233.256 962.117 234.193C963.821 235.131 965.773 235.608 967.972 235.625C970.154 235.608 972.208 235.173 974.134 234.321C976.06 233.452 977.781 232.216 979.298 230.614C980.833 229.011 982.06 227.094 982.98 224.861C983.918 222.628 984.463 220.139 984.617 217.395L989.04 217.446C988.972 220.259 988.588 222.645 987.889 224.605C987.208 226.548 986.423 228.151 985.537 229.412C984.651 230.673 983.875 231.687 983.21 232.455C983.023 232.71 982.835 232.966 982.648 233.222C982.46 233.477 982.264 233.733 982.06 233.989C980.355 235.864 978.233 237.287 975.693 238.259C973.171 239.23 970.648 239.716 968.125 239.716ZM1044.51 239V186.636H1049.29V234.705H1074.24V239H1044.51ZM1138.14 212.818C1138.14 218.273 1137.17 223.02 1135.22 227.06C1133.28 231.082 1130.6 234.202 1127.2 236.418C1123.8 238.616 1119.9 239.716 1115.49 239.716C1111.07 239.716 1107.16 238.616 1103.75 236.418C1100.36 234.202 1097.69 231.082 1095.75 227.06C1093.82 223.02 1092.86 218.273 1092.86 212.818C1092.86 207.364 1093.82 202.625 1095.75 198.602C1097.69 194.562 1100.37 191.443 1103.77 189.244C1107.18 187.028 1111.09 185.92 1115.49 185.92C1119.9 185.92 1123.8 187.028 1127.2 189.244C1130.6 191.443 1133.28 194.562 1135.22 198.602C1137.17 202.625 1138.14 207.364 1138.14 212.818ZM1133.49 212.818C1133.49 208.131 1132.7 204.116 1131.13 200.776C1129.56 197.418 1127.43 194.852 1124.72 193.08C1122.01 191.307 1118.93 190.42 1115.49 190.42C1112.06 190.42 1108.99 191.307 1106.28 193.08C1103.57 194.852 1101.42 197.409 1099.84 200.75C1098.27 204.091 1097.49 208.114 1097.49 212.818C1097.49 217.506 1098.27 221.52 1099.84 224.861C1101.41 228.202 1103.54 230.767 1106.26 232.557C1108.97 234.33 1112.04 235.216 1115.49 235.216C1118.93 235.216 1122.01 234.33 1124.72 232.557C1127.44 230.784 1129.59 228.227 1131.16 224.886C1132.73 221.528 1133.5 217.506 1133.49 212.818ZM1198.17 203C1197.69 201.261 1197 199.634 1196.08 198.116C1195.15 196.582 1194.01 195.244 1192.65 194.102C1191.3 192.943 1189.74 192.04 1187.97 191.392C1186.21 190.744 1184.25 190.42 1182.09 190.42C1178.68 190.42 1175.63 191.307 1172.94 193.08C1170.24 194.852 1168.11 197.409 1166.54 200.75C1164.99 204.091 1164.22 208.114 1164.22 212.818C1164.22 217.506 1165 221.52 1166.57 224.861C1168.14 228.202 1170.29 230.767 1173.01 232.557C1175.76 234.33 1178.89 235.216 1182.42 235.216C1185.64 235.216 1188.49 234.5 1190.96 233.068C1193.43 231.636 1195.36 229.591 1196.74 226.932C1198.14 224.273 1198.82 221.111 1198.79 217.446L1200.32 217.932H1183.55V213.636H1203.44V217.932C1203.44 222.398 1202.54 226.259 1200.73 229.514C1198.92 232.77 1196.44 235.284 1193.29 237.057C1190.13 238.83 1186.51 239.716 1182.42 239.716C1177.85 239.716 1173.86 238.616 1170.43 236.418C1167 234.202 1164.34 231.082 1162.43 227.06C1160.54 223.02 1159.59 218.273 1159.59 212.818C1159.59 208.71 1160.13 205.003 1161.23 201.696C1162.32 198.389 1163.86 195.56 1165.85 193.207C1167.87 190.855 1170.24 189.057 1172.99 187.812C1175.73 186.551 1178.77 185.92 1182.09 185.92C1184.95 185.92 1187.57 186.372 1189.94 187.276C1192.33 188.179 1194.42 189.423 1196.23 191.009C1198.05 192.577 1199.54 194.392 1200.7 196.455C1201.88 198.5 1202.67 200.682 1203.08 203H1198.17ZM1232.33 186.636V239H1227.55V186.636H1232.33ZM1286.92 199.727C1286.63 196.812 1285.35 194.494 1283.06 192.773C1280.78 191.051 1277.91 190.19 1274.45 190.19C1272.01 190.19 1269.86 190.608 1268 191.443C1266.16 192.278 1264.71 193.437 1263.66 194.92C1262.62 196.386 1262.1 198.057 1262.1 199.932C1262.1 201.312 1262.4 202.523 1262.99 203.562C1263.59 204.602 1264.39 205.497 1265.4 206.247C1266.42 206.98 1267.54 207.611 1268.77 208.139C1270.01 208.668 1271.27 209.111 1272.53 209.469L1278.05 211.054C1279.72 211.514 1281.39 212.102 1283.06 212.818C1284.73 213.534 1286.26 214.437 1287.64 215.528C1289.04 216.602 1290.15 217.923 1290.99 219.491C1291.84 221.043 1292.27 222.909 1292.27 225.091C1292.27 227.886 1291.54 230.401 1290.09 232.634C1288.65 234.866 1286.57 236.639 1283.86 237.952C1281.15 239.247 1277.9 239.895 1274.11 239.895C1270.55 239.895 1267.46 239.307 1264.83 238.131C1262.21 236.937 1260.15 235.293 1258.65 233.196C1257.15 231.099 1256.3 228.67 1256.11 225.909H1261.02C1261.19 227.972 1261.88 229.719 1263.07 231.151C1264.26 232.582 1265.81 233.673 1267.72 234.423C1269.63 235.156 1271.76 235.523 1274.11 235.523C1276.72 235.523 1279.04 235.088 1281.07 234.219C1283.11 233.332 1284.72 232.105 1285.88 230.537C1287.05 228.952 1287.64 227.111 1287.64 225.014C1287.64 223.241 1287.18 221.759 1286.26 220.565C1285.34 219.355 1284.05 218.341 1282.4 217.523C1280.76 216.705 1278.86 215.98 1276.7 215.349L1270.43 213.509C1266.32 212.281 1263.14 210.585 1260.87 208.42C1258.6 206.256 1257.47 203.494 1257.47 200.136C1257.47 197.324 1258.22 194.852 1259.72 192.722C1261.24 190.574 1263.28 188.903 1265.86 187.71C1268.45 186.5 1271.35 185.895 1274.57 185.895C1277.83 185.895 1280.71 186.491 1283.22 187.685C1285.72 188.878 1287.71 190.523 1289.17 192.619C1290.66 194.699 1291.45 197.068 1291.55 199.727H1286.92ZM1312.84 190.932V186.636H1350.81V190.932H1334.22V239H1329.44V190.932H1312.84ZM1378.6 186.636V239H1373.82V186.636H1378.6ZM1445.77 203H1440.96C1440.61 201.21 1439.96 199.557 1439.02 198.04C1438.1 196.506 1436.94 195.168 1435.54 194.026C1434.15 192.884 1432.56 191.997 1430.79 191.366C1429.01 190.736 1427.1 190.42 1425.03 190.42C1421.73 190.42 1418.71 191.281 1415.98 193.003C1413.27 194.724 1411.1 197.256 1409.46 200.597C1407.84 203.92 1407.03 207.994 1407.03 212.818C1407.03 217.676 1407.84 221.767 1409.46 225.091C1411.1 228.415 1413.27 230.937 1415.98 232.659C1418.71 234.364 1421.73 235.216 1425.03 235.216C1427.1 235.216 1429.01 234.901 1430.79 234.27C1432.56 233.639 1434.15 232.761 1435.54 231.636C1436.94 230.494 1438.1 229.156 1439.02 227.622C1439.96 226.088 1440.61 224.426 1440.96 222.636H1445.77C1445.34 225.04 1444.54 227.281 1443.37 229.361C1442.21 231.423 1440.72 233.23 1438.92 234.781C1437.13 236.332 1435.07 237.543 1432.73 238.412C1430.4 239.281 1427.83 239.716 1425.03 239.716C1420.64 239.716 1416.73 238.616 1413.32 236.418C1409.92 234.202 1407.24 231.082 1405.3 227.06C1403.37 223.037 1402.41 218.29 1402.41 212.818C1402.41 207.347 1403.37 202.599 1405.3 198.577C1407.24 194.554 1409.92 191.443 1413.32 189.244C1416.73 187.028 1420.64 185.92 1425.03 185.92C1427.83 185.92 1430.4 186.355 1432.73 187.224C1435.07 188.077 1437.13 189.287 1438.92 190.855C1440.72 192.406 1442.21 194.213 1443.37 196.276C1444.54 198.338 1445.34 200.58 1445.77 203Z" fill="white"/>
</g>
</g>
<defs>
<linearGradient id="paint0_linear_1142_2561" x1="3185.99" y1="11027.3" x2="29158" y2="37415.1" gradientUnits="userSpaceOnUse">
<stop stop-color="#1C7BDB"/>
<stop offset="1" stop-color="#1B43C4"/>
</linearGradient>
<linearGradient id="paint1_linear_1142_2561" x1="3185.99" y1="33910.1" x2="29158" y2="7522.19" gradientUnits="userSpaceOnUse">
<stop stop-color="#1ECCFE"/>
<stop offset="1" stop-color="#1B43C4"/>
</linearGradient>
<linearGradient id="paint2_linear_1142_2561" x1="7313.37" y1="59148.4" x2="76505.8" y2="-37506.3" gradientUnits="userSpaceOnUse">
<stop stop-color="#FDBA24"/>
<stop offset="0.5" stop-color="#F37A20"/>
<stop offset="0.9" stop-color="#F05D22"/>
</linearGradient>
<linearGradient id="paint3_linear_1142_2561" x1="11255.2" y1="-406.3" x2="36583" y2="-406.3" gradientUnits="userSpaceOnUse">
<stop stop-color="#1C43C4"/>
<stop offset="1" stop-color="#1B43C4"/>
</linearGradient>
<linearGradient id="paint4_linear_1142_2561" x1="7609.69" y1="-406.301" x2="68722.1" y2="-406.301" gradientUnits="userSpaceOnUse">
<stop stop-color="#1C43C4"/>
<stop offset="1" stop-color="#1B43C4"/>
</linearGradient>
<clipPath id="clip0_1142_2561">
<rect width="1500" height="239" fill="white"/>
</clipPath>
<clipPath id="clip1_1142_2561">
<rect width="1500" height="239" fill="white"/>
</clipPath>
</defs>
</svg>
